<?xml version="1.0" standalone="no"?>
<!DOCTYPE svg PUBLIC "-//W3C//DTD SVG 20010904//EN"
 "http://www.w3.org/TR/2001/REC-SVG-20010904/DTD/svg10.dtd">
<svg version="1.0" xmlns="http://www.w3.org/2000/svg"
 width="260.000000pt" height="260.000000pt" viewBox="0 0 260.000000 260.000000"
 preserveAspectRatio="xMidYMid meet">
<metadata>
Created by potrace 1.14, written by Peter Selinger 2001-2017
</metadata>
<g transform="translate(0.000000,260.000000) scale(0.100000,-0.100000)"
fill="#000000" stroke="none">
<path d="M1190 2013 c-53 -9 -137 -35 -180 -56 -62 -30 -150 -121 -183 -187
-27 -58 -57 -178 -57 -233 l0 -32 155 0 154 0 11 49 c14 63 47 108 102 134 58
28 198 26 248 -4 74 -43 92 -100 57 -178 -32 -69 -72 -113 -183 -202 -51 -40
-104 -89 -119 -108 -36 -47 -63 -139 -71 -237 -6 -73 -5 -79 12 -80 73 -3 255
-2 258 2 2 2 6 34 9 71 9 110 48 167 169 250 111 75 188 151 226 223 25 46 27
60 27 165 0 110 -1 118 -33 182 -21 43 -51 83 -84 113 -72 65 -121 88 -253
122 -26 7 -232 11 -265 6z"/>
<path d="M1208 760 c-146 -42 -163 -246 -26 -314 112 -56 242 15 252 137 10
118 -107 210 -226 177z"/>
</g>
</svg>
